<svg id="Layer_1" data-name="Layer 1" xmlns="http://www.w3.org/2000/svg" viewBox="0 0 522.94 154.27"><defs><style>.cls-1{fill:#a8aaad;}.cls-2{fill:#2a3b8f;}.cls-3{fill:#faaf43;}.cls-4{fill:#231f20;}.cls-5{fill:#fedd10;}.cls-6{fill:#f15b2a;}.cls-7{fill:#eb2227;}.cls-8{fill:#814097;}</style></defs><title>Pyomo_DAE Logo Final</title><path class="cls-1" d="M84.36,143.92a26.27,26.27,0,0,1-1.19-2.38l2.77-1.15-1.39.57,1.39-.58s.33.79,1,2.08Z" transform="translate(-20.2 -28.42)"/><path class="cls-1" d="M142.2,174.09q-1.27,0-2.51,0l.08-3q2.37.06,4.87,0l.08,3Q143.44,174.09,142.2,174.09Zm7.61-.31-.37-3c.53-.06,2.05-.28,4.77-.82l.59,2.94C152.82,173.32,151,173.63,149.81,173.78Zm-25.13-1.47c-1.66-.36-3.31-.77-4.9-1.24l.84-2.88c1.53.45,3.11.84,4.7,1.19Zm35-.46-.69-2.92c1.46-.35,3.05-.74,4.77-1.2l.77,2.9C162.8,171.09,161.18,171.49,159.7,171.84ZM115,169.47c-1.58-.59-3.15-1.25-4.67-2l1.27-2.72c1.45.68,2.95,1.31,4.46,1.87Zm54.39-.18-.84-2.88q2.26-.66,4.71-1.43l.9,2.86Q171.64,168.63,169.35,169.29Zm9.52-3-1-2.84q2.26-.77,4.65-1.63l1,2.82Q181.16,165.52,178.87,166.29Zm-73.08-1.12c-1.46-.84-2.91-1.75-4.3-2.7l1.7-2.47c1.32.91,2.69,1.77,4.08,2.57Zm82.46-2.27-1.08-2.8q2.25-.87,4.58-1.82l1.14,2.78Q190.52,162,188.25,162.9Zm-90.81-3.5c-1.31-1.08-2.58-2.22-3.78-3.4l2.1-2.14c1.14,1.12,2.34,2.21,3.58,3.23ZM206.55,155l-1.3-2.7q2.19-1.05,4.42-2.18l1.35,2.68Q208.76,153.93,206.55,155ZM90.19,152.28c-1.11-1.3-2.16-2.66-3.12-4l2.46-1.72c.91,1.29,1.9,2.57,2.95,3.81Zm125.25-1.79L214,147.84q2.15-1.14,4.32-2.36l1.46,2.62Q217.62,149.33,215.44,150.49Zm8.5-3.27-.17-3c1.28-.07,2.72-.1,4.38-.12h.63l.05,3h-.63C226.57,147.12,225.16,147.15,223.94,147.22Zm9.89-.27-.13-3c1.72-.07,3.31-.18,4.87-.32l.27,3C237.24,146.77,235.6,146.87,233.83,146.95Zm10-.92-.44-3c1.6-.24,3.21-.52,4.79-.85l.62,2.94C247.18,145.49,245.51,145.79,243.85,146Zm9.87-2.09-.81-2.89c1.55-.43,3.11-.92,4.63-1.45l1,2.83C257,143,255.33,143.49,253.72,143.94Zm9.52-3.33-1.17-2.76c1.48-.63,3-1.31,4.41-2l1.34,2.68C266.32,139.25,264.78,140,263.24,140.61Zm9-4.49-1.5-2.6c1.38-.8,2.78-1.66,4.14-2.55l1.64,2.51C275.14,134.4,273.69,135.29,272.26,136.12Zm8.42-5.51-1.78-2.42c1.28-.94,2.58-1.95,3.85-3l1.89,2.33C283.34,128.6,282,129.64,280.68,130.61Zm7.78-6.34-2-2.23,1.43-1.31c.47-.44,1.1-1.09,2-2.07l2.21,2c-1,1-1.63,1.74-2.16,2.24Zm7-7.28-2.23-2c1-1.13,2.14-2.37,3.36-3.68l2.2,2C297.55,114.63,296.44,115.86,295.43,117Zm6.71-7.22L300,107.67c1.19-1.22,2.38-2.41,3.54-3.54l2.09,2.15C304.48,107.39,303.31,108.55,302.14,109.76Zm7.06-6.83-2-2.22c1.26-1.14,2.54-2.25,3.79-3.29l1.92,2.3C311.68,100.73,310.43,101.81,309.2,102.93Zm7.52-6.25-1.81-2.39c1.36-1,2.74-2,4.1-2.93l1.68,2.49C319.38,94.72,318,95.68,316.72,96.67Zm79-2.06c-1.57,0-3.28-.16-5.08-.37l.34-3c1.71.2,3.33.31,4.81.35Zm5.16-.21-.35-3a18.73,18.73,0,0,0,4.45-1l1.07,2.8A21.73,21.73,0,0,1,400.87,94.4Zm-15.23-.9c-1.55-.27-3.21-.61-4.92-1l.65-2.93c1.67.37,3.29.69,4.8,1Zm-9.79-2.14c-1.62-.41-3.23-.84-4.82-1.28l.8-2.89c1.57.43,3.16.86,4.76,1.26Zm-51.05-.12-1.51-2.59c1.49-.87,3-1.68,4.46-2.4l1.32,2.7C327.67,89.64,326.23,90.41,324.8,91.25Zm41.44-2.51-3.63-1.06-1.13-.33.84-2.88,1.13.33,3.62,1.06ZM356.72,86c-1.95-.54-3.45-.93-4.73-1.22l.66-2.93c1.33.3,2.88.7,4.88,1.26Zm-14-1.43-.44-3a39.5,39.5,0,0,1,5.12-.42l0,3A36.46,36.46,0,0,0,342.71,84.55Z" transform="translate(-20.2 -28.42)"/><path class="cls-1" d="M410.72,90.26l-2.11-2.13a8.47,8.47,0,0,0,1.31-1.66L412.48,88A11.51,11.51,0,0,1,410.72,90.26Z" transform="translate(-20.2 -28.42)"/><polygon class="cls-2" points="351.55 54.56 375.88 49.58 371.18 47.44 370.45 45.51 364.35 25.6 365.34 0 390.93 30.13 408.89 7.92 410.98 17.28 403.32 43.41 411.01 43.14 415.95 48.2 412.64 48.32 399.67 56.59 389.02 58.07 371.46 53.93 361.12 57.58 351.55 54.56"/><polygon class="cls-3" points="95.33 154.27 117.84 140.82 112.22 140.31 111 138.65 97.98 120.95 90.04 95.09 126.05 116.19 136.19 87.78 141.55 96.39 143.03 125.09 150.6 122.15 157.29 125.47 154.02 126.74 143.99 139.51 133.89 144.69 114.95 146.7 105.91 153.93 95.33 154.27"/><path class="cls-4" d="M439.25,90.08V67.86h10.18q3.76,0,5.13,1.45t1.37,5.42q0,3.81-1.43,5.19t-5.35,1.38l-1,0h-6.41v8.76Zm2.51-10.88h5.94q3.73,0,4.78-.76t1-3.52q0-3.22-.71-4.08T449.46,70l-1,0h-6.74Z" transform="translate(-20.2 -28.42)"/><path class="cls-4" d="M474.9,67.86,466.5,80.8v9.28H464V80.8L455.8,67.86h2.91l4.77,7.5.91,1.45c.12.17.27.41.46.72l.44.73h.06l.44-.73.44-.72.93-1.45,4.75-7.5Z" transform="translate(-20.2 -28.42)"/><path class="cls-4" d="M483.83,67.63q6.3,0,7.88,1.84t1.58,9.2q0,7.93-1.51,9.79t-7.95,1.86q-6.4,0-7.94-1.84T474.35,79V77.4l0-2.1q0-4.43,2-6T483.83,67.63Zm0,2.12q-5.27,0-6.17,1.17t-.89,8q0,6.89.89,8.06t6.17,1.17q5.29,0,6.19-1.17t.89-8.06V77.51l0-2.1q0-3.68-1.24-4.67T483.81,69.74Z" transform="translate(-20.2 -28.42)"/><path class="cls-4" d="M520.55,67.86V90.08H518V70.3l0-.67H518l-.19.52-.2.51-.42,1-7.57,18.38h-2.51l-7.59-18.17-.44-1-.19-.52c-.05-.12-.12-.29-.2-.5h-.07l0,.6,0,.62v19h-2.51V67.86h4.35l5.93,14.37.94,2.33.47,1.16.46,1.15h.07l.46-1.15c.23-.55.38-.94.46-1.16l1-2.31,5.89-14.39Z" transform="translate(-20.2 -28.42)"/><path class="cls-4" d="M532.89,67.63q6.3,0,7.88,1.84t1.58,9.2q0,7.93-1.51,9.79t-7.95,1.86q-6.4,0-7.94-1.84T523.41,79V77.4l0-2.1q0-4.43,2-6T532.89,67.63Zm0,2.12q-5.27,0-6.17,1.17t-.89,8q0,6.89.89,8.06t6.17,1.17q5.29,0,6.19-1.17T540,79V77.51l0-2.1q0-3.68-1.24-4.67T532.87,69.74Z" transform="translate(-20.2 -28.42)"/><path class="cls-4" d="M349.65,177.5V102.12h42.05q15.79,0,22.12,6.9t6.32,24.19q0,28.22-5.08,36.25t-22.92,8Zm14.3-12h25.38q10.27,0,13.28-4.72t3-20.85q0-16.68-2.7-21.21t-12.7-4.53H364Z" transform="translate(-20.2 -28.42)"/><path class="cls-4" d="M469.37,163H436.85l-4.69,14.47H417l25.07-75.38h21.48L489,177.5H474.18Zm-3.31-10.55-13-39.26-12.81,39.26Z" transform="translate(-20.2 -28.42)"/><path class="cls-4" d="M505.53,114.16V133.6h35.34v10.55H505.53v21.32h37.61v12H491.23V102.12h51.58v12Z" transform="translate(-20.2 -28.42)"/><polygon class="cls-5" points="84.94 100.52 59.73 90.9 39.85 90.47 8.45 85.72 0 92.27 17.14 91.16 23.67 94.82 34.58 102.54 24.85 113.26 39.53 114.75 44.57 132.91 62.04 120.9 71.12 108.26 84.07 107.74 88.17 109.42 84.94 100.52"/><polyline class="cls-6" points="163.83 111.9 151.01 95.28 151.01 95.28 200.32 102.52 192.56 102.25 209.81 88.7 211.56 103.66 217.07 103.18 224.21 108 216.47 109.1 207.96 121.86 177.47 137.38 173.73 142.04 169.47 142.08 159.71 144.94 183.14 125.32 183.29 125.19 183.92 124.94 183.29 125.19 179.6 125"/><polygon class="cls-7" points="282.81 73.05 276.26 71.1 283.4 61.37 286.56 59.75 279.07 56.54 269.24 61.68 269.24 61.67 258.28 67.78 245.59 83.47 236.66 93.66 228.3 100.3 228.98 109.32 238.92 95.46 244.93 93.8 248.77 91.66 249.78 91.72 255.58 97.33 282.73 99.25 300.64 94.87 307.04 90.82 282.81 73.05 282.81 73.05"/><polyline class="cls-8" points="298.84 44.13 284.86 27.05 284.86 27.05 336.89 33.17 328.73 33.11 346.44 18.36 348.73 34.02 354.51 33.36 362.15 38.2 354.05 39.59 345.5 53.25 313.94 70.49 310.15 75.5 305.68 75.66 295.51 78.96 319.53 57.64 319.69 57.5 320.34 57.21 319.69 57.5 315.8 57.41"/></svg>